<svg width="13" height="13" viewBox="0 0 13 13" fill="none" xmlns="http://www.w3.org/2000/svg">
<g clip-path="url(#clip0)">
<path d="M12.9794 6.60025C13.0213 6.49897 12.998 6.38243 12.9204 6.30504L8.04538 1.43003C7.9378 1.32611 7.76633 1.32911 7.66241 1.43669C7.56105 1.54165 7.56105 1.70803 7.66241 1.81297L12.0754 6.22594H0.270842C0.121266 6.22597 0 6.34723 0 6.49681C0 6.64639 0.121266 6.76765 0.270842 6.76765H12.0754L7.66297 11.1801C7.55539 11.284 7.55239 11.4554 7.65632 11.563C7.76024 11.6706 7.93168 11.6736 8.03928 11.5697C8.04154 11.5675 8.04375 11.5653 8.04593 11.563L12.9209 6.68803C12.946 6.66287 12.9659 6.63306 12.9794 6.60025Z" fill="#272727"/>
<path d="M7.85409 11.6425C7.70451 11.6428 7.58304 11.5218 7.58276 11.3722C7.58264 11.3001 7.61128 11.2309 7.66234 11.18L12.3461 6.49673L7.66234 1.81348C7.55841 1.7059 7.56141 1.53444 7.66899 1.43051C7.77396 1.32915 7.94034 1.32915 8.04528 1.43051L12.9203 6.30551C13.026 6.41126 13.026 6.5827 12.9203 6.68848L8.04528 11.5635C7.99455 11.6141 7.92579 11.6425 7.85409 11.6425Z" fill="#272727"/>
<path d="M12.7292 6.76773H0.270842C0.121266 6.76773 0 6.64649 0 6.49692C0 6.34734 0.121266 6.22607 0.270842 6.22607H12.7292C12.8788 6.22607 13 6.34734 13 6.49692C13 6.64649 12.8787 6.76773 12.7292 6.76773Z" fill="#272727"/>
</g>
<defs>
<clipPath id="clip0">
<rect width="13" height="13" fill="white"/>
</clipPath>
</defs>
</svg>
