<svg width="42" height="41" viewBox="0 0 42 41" fill="none" xmlns="http://www.w3.org/2000/svg">
<path fill-rule="evenodd" clip-rule="evenodd" d="M20.6458 0.00170577C23.9991 0.0558066 20.9885 0.00170577 21.1598 0.00170577C21.7888 4.09172 20.7824 8.53446 17.6503 11.7913C15.4293 6.74698 8.69231 6.18432 3.73828 8.68594C9.02851 1.04477 17.2903 -0.0502311 20.6458 0.00170577Z" fill="#EB1933"/>
<path fill-rule="evenodd" clip-rule="evenodd" d="M20.6458 0.00170577C23.9991 0.0558066 20.9885 0.00170577 21.1598 0.00170577C21.7888 4.09172 20.7824 8.53446 17.6503 11.7913C15.4293 6.74698 8.69231 6.18432 3.73828 8.68594C9.02851 1.04477 17.2903 -0.0502311 20.6458 0.00170577Z" fill="#2151A1"/>
<path fill-rule="evenodd" clip-rule="evenodd" d="M8.54445 37.5369C-2.73442 29.4564 -3.38512 13.3431 9.82637 9.99316C0.647084 18.026 3.01131 29.8676 8.54445 37.5369Z" fill="#2151A1"/>
<path fill-rule="evenodd" clip-rule="evenodd" d="M0.00292969 22.0014C0.074507 16.5393 3.21307 11.6681 9.82638 9.99316C4.72054 14.4619 3.18705 20.11 3.78787 25.5612C2.24713 24.7113 0.946665 23.4868 0.00726864 22.0014H0.00292969Z" fill="#EB1933"/>
<path fill-rule="evenodd" clip-rule="evenodd" d="M0.00292969 22.0014C0.074507 16.5393 3.21307 11.6681 9.82638 9.99316C4.72054 14.4619 3.18705 20.11 3.78787 25.5612C2.24713 24.7113 0.946665 23.4868 0.00726864 22.0014H0.00292969Z" fill="#2151A1"/>
<path fill-rule="evenodd" clip-rule="evenodd" d="M23.3371 0.178711C31.2236 1.19797 38.1189 6.69026 40.6003 15.0001C36.9845 19.5099 27.43 20.4621 18.7388 18.6141C24.1461 15.0542 25.5473 6.92831 23.3371 0.183039V0.178711Z" fill="#EB1933"/>
<path fill-rule="evenodd" clip-rule="evenodd" d="M23.3371 0.178711C31.2236 1.19797 38.1189 6.69026 40.6003 15.0001C36.9845 19.5099 27.43 20.4621 18.7388 18.6141C24.1461 15.0542 25.5473 6.92831 23.3371 0.183039V0.178711Z" fill="#2151A1"/>
<path fill-rule="evenodd" clip-rule="evenodd" d="M23.3371 0.178711C26.2517 0.555372 29.0521 1.54843 31.5511 3.09149C31.9301 3.58036 32.2613 4.10428 32.5402 4.65608C34.8199 9.15943 33.3037 14.84 29.1696 19.4364C25.6714 19.6287 22.1632 19.3521 18.7388 18.6141C24.1461 15.0542 25.5473 6.92831 23.3371 0.183039V0.178711Z" fill="#EB1933"/>
<path fill-rule="evenodd" clip-rule="evenodd" d="M23.3371 0.178711C26.2517 0.555372 29.0521 1.54843 31.5511 3.09149C31.9301 3.58036 32.2613 4.10428 32.5402 4.65608C34.8199 9.15943 33.3037 14.84 29.1696 19.4364C25.6714 19.6287 22.1632 19.3521 18.7388 18.6141C24.1461 15.0542 25.5473 6.92831 23.3371 0.183039V0.178711Z" fill="#2151A1"/>
<path fill-rule="evenodd" clip-rule="evenodd" d="M41.1107 17.2383C44.7416 45.9203 1.30055 49.8913 10.1783 20.6358C16.4056 31.101 38.5274 28.5194 41.1107 17.2383Z" fill="#EB1933"/>
</svg>
