<svg width="21" height="22" viewBox="0 0 21 22" fill="none" xmlns="http://www.w3.org/2000/svg">
<path d="M8.69606 12.89C6.69165 10.7902 6.23906 8.69031 6.13696 7.849C6.10843 7.61637 6.18484 7.38309 6.3437 7.21783L7.96577 5.51927C8.20438 5.26946 8.24672 4.88013 8.06787 4.58048L5.48524 0.379239C5.28737 0.0474371 4.8811 -0.0723136 4.54712 0.102722L0.401063 2.14834C0.130981 2.28767 -0.0278777 2.58829 0.00278714 2.90203C0.220029 5.0641 1.11977 10.379 6.10546 15.6025C11.0912 20.826 16.1637 21.7682 18.2286 21.9958C18.5281 22.0279 18.8151 21.8615 18.948 21.5785L20.9007 17.235C21.0671 16.8859 20.9536 16.4614 20.6382 16.2538L16.6279 13.5489C16.342 13.3613 15.9704 13.4054 15.7318 13.6551L14.1104 15.3544C13.9527 15.5208 13.73 15.6009 13.508 15.571C12.7049 15.464 10.7005 14.9899 8.69606 12.89Z" fill="#EB1933"/>
<path d="M16.6557 11.7585C16.2557 11.7585 15.9315 11.4188 15.9315 10.9999C15.9281 7.85903 13.4986 5.31376 10.5005 5.31021C10.1006 5.31021 9.77637 4.97056 9.77637 4.55159C9.77637 4.13261 10.1006 3.79297 10.5005 3.79297C14.2981 3.79736 17.3756 7.02143 17.3798 10.9999C17.3798 11.4188 17.0556 11.7585 16.6557 11.7585Z" fill="#EB1933"/>
<path d="M20.2764 11.7586C19.8764 11.7586 19.5522 11.419 19.5522 11C19.5466 5.76524 15.4973 1.52309 10.5005 1.51724C10.1006 1.51724 9.77637 1.1776 9.77637 0.758621C9.77637 0.339646 10.1006 0 10.5005 0C16.2968 0.00668947 20.9941 4.92764 21.0005 11C21.0005 11.2012 20.9242 11.3942 20.7884 11.5364C20.6526 11.6787 20.4684 11.7586 20.2764 11.7586Z" fill="#EB1933"/>
</svg>
