<svg width="26" height="26" viewBox="0 0 26 26" fill="none" xmlns="http://www.w3.org/2000/svg">
<g clip-path="url(#clip0)">
<path d="M13.3281 0.00541909C8.04801 -0.172522 3.71191 4.05468 3.71191 9.29455C3.71191 15.2412 9.41868 19.5569 12.6173 25.7634C12.7797 26.0786 13.2334 26.079 13.3963 25.7639C16.2899 20.1793 21.2355 16.4345 22.1521 11.0543C23.1011 5.48692 18.9725 0.195712 13.3281 0.00541909ZM13.0064 14.1631C10.3176 14.1631 8.13786 11.9833 8.13786 9.29455C8.13786 6.60584 10.3177 4.42605 13.0064 4.42605C15.6951 4.42605 17.8749 6.60584 17.8749 9.29455C17.8749 11.9833 15.6951 14.1631 13.0064 14.1631Z" fill="#EB1933"/>
</g>
<defs>
<clipPath id="clip0">
<rect width="26" height="26" fill="white"/>
</clipPath>
</defs>
</svg>
