<svg width="26" height="26" viewBox="0 0 26 26" fill="none" xmlns="http://www.w3.org/2000/svg">
<path d="M17.2344 13.1336L25.9996 18.6749V7.3584L17.2344 13.1336Z" fill="#EB1933"/>
<path d="M0 7.3584V18.6749L8.76525 13.1336L0 7.3584Z" fill="#EB1933"/>
<path d="M24.3751 4.0625H1.62508C0.814203 4.0625 0.170703 4.667 0.0488281 5.44538L13.0001 13.9783L25.9513 5.44538C25.8295 4.667 25.186 4.0625 24.3751 4.0625Z" fill="#EB1933"/>
<path d="M15.746 14.1149L13.4466 15.6294C13.3101 15.7188 13.1558 15.7627 12.9998 15.7627C12.8438 15.7627 12.6894 15.7188 12.5529 15.6294L10.2535 14.1133L0.0517578 20.5662C0.176883 21.338 0.817133 21.9377 1.62476 21.9377H24.3748C25.1824 21.9377 25.8226 21.338 25.9478 20.5662L15.746 14.1149Z" fill="#EB1933"/>
</svg>
