<svg width="14" height="14" viewBox="0 0 14 14" fill="none" xmlns="http://www.w3.org/2000/svg">
<path d="M5.81754 11.621C4.67104 11.6265 3.54872 11.2903 2.59284 10.655C1.63695 10.0196 0.890541 9.11376 0.44822 8.0522C0.00589947 6.99064 -0.112416 5.82118 0.108272 4.69206C0.32896 3.56294 0.878713 2.525 1.68785 1.70981C2.49698 0.894614 3.52906 0.338872 4.65327 0.113027C5.77747 -0.112818 6.94318 0.00140308 8.00263 0.441212C9.06208 0.88102 9.96756 1.62661 10.6043 2.58348C11.2411 3.54035 11.5804 4.6654 11.5793 5.81604C11.5797 7.35184 10.9735 8.82517 9.89348 9.91324C8.8135 11.0013 7.34781 11.6154 5.81754 11.621ZM5.81754 1.12509C4.89225 1.11955 3.98616 1.38983 3.21411 1.90168C2.44205 2.41354 1.8388 3.14391 1.48081 4.00023C1.12283 4.85655 1.02622 5.80025 1.20324 6.71174C1.38027 7.62322 1.82295 8.46143 2.47517 9.12013C3.1274 9.77884 3.95981 10.2284 4.86689 10.4118C5.77396 10.5951 6.71487 10.5041 7.57035 10.1502C8.42583 9.79635 9.15735 9.19552 9.67221 8.42392C10.1871 7.65232 10.4621 6.74468 10.4624 5.81604C10.465 4.57621 9.97736 3.38599 9.10656 2.50655C8.23577 1.6271 7.0529 1.13028 5.81754 1.12509Z" fill="white"/>
<path d="M13.2108 13.9999L9.35522 10.1515L10.1445 9.35938L14 13.2065L13.2108 13.9999Z" fill="white"/>
</svg>
