<svg width="16" height="16" viewBox="0 0 16 16" fill="none" xmlns="http://www.w3.org/2000/svg">
<g clip-path="url(#clip0)">
<path d="M14.8925 9.29392C15.0037 8.79462 15.0612 8.27713 15.0612 7.74621C15.0612 3.76433 11.7875 0.535708 7.74813 0.535708C7.32262 0.535708 6.90479 0.572125 6.4975 0.641125C5.84392 0.23575 5.07054 0 4.24158 0C1.89846 0 0 1.87162 0 4.18217C0 4.95362 0.21275 5.67525 0.582667 6.29721C0.485875 6.76487 0.434125 7.24979 0.434125 7.74621C0.434125 11.729 3.70875 14.9577 7.74717 14.9577C8.20525 14.9577 8.65279 14.9155 9.08692 14.8369C9.68492 15.1532 10.3672 15.3333 11.0927 15.3333C13.4349 15.3333 15.3333 13.4607 15.3333 11.1521C15.3333 10.4842 15.1742 9.85454 14.8925 9.29392ZM11.499 11.1924C11.1607 11.6648 10.6615 12.0386 10.0127 12.3031C9.37154 12.5666 8.60392 12.7008 7.728 12.7008C6.67767 12.7008 5.79696 12.5187 5.10887 12.1584C4.61725 11.8968 4.21283 11.5431 3.90521 11.1042C3.59375 10.6634 3.43754 10.2254 3.43754 9.80183C3.43754 9.53829 3.54008 9.30925 3.74229 9.12237C3.94258 8.9355 4.19942 8.84254 4.50608 8.84254C4.75717 8.84254 4.97375 8.91633 5.15008 9.06296C5.31779 9.20383 5.4625 9.41275 5.57846 9.68012C5.70783 9.97337 5.84871 10.2206 5.99725 10.4132C6.14196 10.602 6.348 10.7592 6.61154 10.8828C6.877 11.0055 7.23446 11.0697 7.67337 11.0697C8.27808 11.0697 8.7745 10.9423 9.14633 10.6912C9.51146 10.4468 9.68779 10.1516 9.68779 9.79129C9.68779 9.50762 9.59483 9.28337 9.40604 9.108C9.20671 8.924 8.94413 8.78121 8.62596 8.6825C8.29342 8.58092 7.84204 8.46975 7.28429 8.35475C6.52433 8.19471 5.87937 8.00496 5.36762 7.78933C4.84342 7.56892 4.41983 7.26417 4.11125 6.88275C3.79692 6.49463 3.63783 6.00875 3.63783 5.43758C3.63783 4.89325 3.80458 4.40258 4.13425 3.979C4.46104 3.55829 4.93829 3.22958 5.5545 3.00629C6.16112 2.78492 6.88275 2.67279 7.70021 2.67279C8.35283 2.67279 8.92688 2.74754 9.407 2.89512C9.88904 3.04271 10.2954 3.24204 10.6145 3.48833C10.9365 3.7375 11.1761 4.00104 11.3256 4.27704C11.477 4.55496 11.5546 4.83192 11.5546 5.09929C11.5546 5.35708 11.454 5.59187 11.2547 5.79504C11.0534 6.00108 10.8004 6.10458 10.5033 6.10458C10.2331 6.10458 10.0203 6.03846 9.87371 5.911C9.73667 5.79121 9.59387 5.60433 9.43671 5.33792C9.25463 4.99675 9.03325 4.72746 8.78025 4.53675C8.53396 4.35179 8.12379 4.25979 7.55837 4.25979C7.03512 4.25979 6.60771 4.36329 6.29146 4.56838C5.98671 4.76483 5.83817 4.991 5.83817 5.25933C5.83817 5.42321 5.88608 5.56025 5.98479 5.67812C6.08829 5.80463 6.23492 5.91292 6.42083 6.00492C6.6125 6.09979 6.81087 6.17646 7.00925 6.23012C7.21242 6.28571 7.55262 6.36908 8.02125 6.47546C8.6135 6.60004 9.15687 6.74092 9.63796 6.89329C10.1257 7.04567 10.5455 7.23446 10.8905 7.45583C11.2403 7.68104 11.5173 7.96854 11.7147 8.31354C11.9121 8.66142 12.0118 9.08788 12.0118 9.58429C12.0108 10.1775 11.8383 10.719 11.499 11.1924Z" fill="#2151A1"/>
</g>
<defs>
<clipPath id="clip0">
<rect width="15.3333" height="15.3333" fill="white"/>
</clipPath>
</defs>
</svg>
