<svg width="20" height="14" viewBox="0 0 20 14" fill="none" xmlns="http://www.w3.org/2000/svg">
<path d="M19.2205 1.2018C18.4985 0.348193 17.1656 0 14.6201 0H5.37974C2.77594 0 1.42045 0.370654 0.701226 1.27945C0 2.16553 0 3.47109 0 5.27803V8.72204C0 12.2226 0.832 14 5.37974 14H14.6201C16.8276 14 18.0508 13.6927 18.8422 12.9394C19.6537 12.1669 20 10.9057 20 8.72204V5.27803C20 3.37246 19.9457 2.05919 19.2205 1.2018ZM12.8401 7.47551L8.64406 9.65676C8.55026 9.70553 8.44768 9.72972 8.34523 9.72972C8.22923 9.72972 8.11348 9.69866 8.01097 9.63693C7.81793 9.52058 7.70006 9.31248 7.70006 9.08801V4.7395C7.70006 4.51541 7.81761 4.3075 8.01026 4.19109C8.20297 4.07469 8.44265 4.06673 8.64258 4.17004L12.8386 6.33724C13.0521 6.44748 13.1861 6.66669 13.1865 6.90586C13.1867 7.14522 13.0532 7.36475 12.8401 7.47551Z" fill="#DDDDDD"/>
</svg>
