<svg width="20" height="20" viewBox="0 0 20 20" fill="none" xmlns="http://www.w3.org/2000/svg">
<path d="M2.568 0H17.4332C18.8455 0 20 1.15493 20 2.5672V17.4324C20 18.8443 18.8455 19.9984 17.4332 19.9984H2.568C1.15573 19.9984 0 18.8442 0 17.4324V2.5672C0 1.15493 1.15573 0 2.568 0ZM14.5697 2.22113C14.0739 2.22113 13.6694 2.6272 13.6694 3.1228V5.27707C13.6694 5.77287 14.0739 6.178 14.5697 6.178H16.8299C17.325 6.178 17.7303 5.77287 17.7303 5.27707V3.1228C17.7303 2.6272 17.325 2.22113 16.8299 2.22113H14.5697ZM17.7389 8.45707H15.9792C16.1461 9.00207 16.2365 9.5768 16.2365 10.1743C16.2365 13.4998 13.4521 16.197 10.0188 16.197C6.58633 16.197 3.80187 13.4998 3.80187 10.1743C3.80187 9.5768 3.8932 9.00207 4.05927 8.45707H2.22333V16.9059C2.22333 17.3434 2.5806 17.6993 3.01773 17.6993H16.9449C17.3824 17.6993 17.7389 17.3434 17.7389 16.9059V8.45707ZM10.0189 6.0644C7.80153 6.0644 6.00287 7.80627 6.00287 9.95693C6.00287 12.1054 7.80153 13.8486 10.0189 13.8486C12.2374 13.8486 14.0361 12.1054 14.0361 9.95693C14.0361 7.8062 12.2374 6.0644 10.0189 6.0644Z" fill="#DDDDDD"/>
</svg>
